<svg width="20" height="21" viewBox="0 0 20 21" fill="none" xmlns="http://www.w3.org/2000/svg">
<g clip-path="url(#clip0_172_32924)">
<path d="M19.805 10.7956C19.805 10.1159 19.7499 9.43242 19.6323 8.76367H10.2V12.6145H15.6014C15.3773 13.8565 14.6571 14.9551 13.6025 15.6533V18.1519H16.825C18.7173 16.4102 19.805 13.8381 19.805 10.7956Z" fill="#4285F4"/>
<path d="M10.1999 20.5662C12.897 20.5662 15.1714 19.6807 16.8286 18.1521L13.6061 15.6535C12.7096 16.2634 11.5521 16.6088 10.2036 16.6088C7.59474 16.6088 5.38272 14.8488 4.58904 12.4824H1.26367V15.0582C2.96127 18.435 6.41892 20.5662 10.1999 20.5662Z" fill="#34A853"/>
<path d="M4.5854 12.4827C4.16651 11.2407 4.16651 9.89587 4.5854 8.65391V6.07812H1.2637C-0.154633 8.90377 -0.154633 12.2328 1.2637 15.0585L4.5854 12.4827Z" fill="#FBBC04"/>
<path d="M10.1999 4.52348C11.6256 4.50143 13.0035 5.0379 14.036 6.02265L16.8911 3.16761C15.0833 1.47002 12.6838 0.536708 10.1999 0.566104C6.41892 0.566104 2.96126 2.69728 1.26367 6.07777L4.58537 8.65355C5.37537 6.28354 7.59106 4.52348 10.1999 4.52348Z" fill="#EA4335"/>
</g>
<defs>
<clipPath id="clip0_172_32924">
<rect width="20" height="20" fill="white" transform="translate(0 0.56543)"/>
</clipPath>
</defs>
</svg>
